%FSLAX34Y34*%
%MOMM*%
%LNSOLDERMASK_TOP*%
G71*
G01*
%ADD10C, 0.00*%
%ADD11C, 2.40*%
%ADD12C, 2.20*%
%ADD13C, 2.80*%
%LPD*%
G54D10*
X0Y500000D02*
X600000Y500000D01*
X600000Y0D01*
X0Y0D01*
X0Y500000D01*
X114300Y469900D02*
G54D11*
D03*
X139700Y469900D02*
G54D11*
D03*
X165100Y469900D02*
G54D11*
D03*
X190500Y469900D02*
G54D11*
D03*
X215900Y469900D02*
G54D11*
D03*
X241300Y469900D02*
G54D11*
D03*
G54D12*
X38100Y88900D02*
X38100Y114300D01*
X381000Y114300D01*
X381000Y88900D01*
G54D12*
X38100Y63500D02*
X63500Y63500D01*
X88900Y88900D01*
X165100Y88900D01*
X165100Y55900D01*
G54D12*
X139700Y55900D02*
X139700Y25400D01*
X406400Y25400D01*
X406400Y88900D01*
X406400Y457200D02*
G54D11*
D03*
X406400Y431800D02*
G54D11*
D03*
X406400Y457200D02*
G54D11*
D03*
X406400Y431800D02*
G54D11*
D03*
X571500Y177800D02*
G54D11*
D03*
X571500Y152400D02*
G54D11*
D03*
X38100Y88900D02*
G54D11*
D03*
X38100Y63500D02*
G54D11*
D03*
X139700Y55900D02*
G54D11*
D03*
X165100Y55900D02*
G54D11*
D03*
X190500Y55900D02*
G54D11*
D03*
X431800Y381000D02*
G54D11*
D03*
X431800Y355600D02*
G54D11*
D03*
X431800Y330200D02*
G54D11*
D03*
X431800Y304800D02*
G54D11*
D03*
X444500Y241300D02*
G54D11*
D03*
X482600Y241300D02*
G54D11*
D03*
X393700Y304800D02*
G54D11*
D03*
X393700Y330200D02*
G54D11*
D03*
X393700Y355600D02*
G54D11*
D03*
X393700Y381000D02*
G54D11*
D03*
X355600Y381000D02*
G54D11*
D03*
X355600Y355600D02*
G54D11*
D03*
X355600Y330200D02*
G54D11*
D03*
X355600Y304800D02*
G54D11*
D03*
X317500Y304800D02*
G54D11*
D03*
X317500Y330200D02*
G54D11*
D03*
X317500Y355600D02*
G54D11*
D03*
X317500Y381000D02*
G54D11*
D03*
G36*
X242000Y431100D02*
X266000Y431100D01*
X266000Y407100D01*
X242000Y407100D01*
X242000Y431100D01*
G37*
G36*
X242000Y405700D02*
X266000Y405700D01*
X266000Y381700D01*
X242000Y381700D01*
X242000Y405700D01*
G37*
G36*
X242000Y380300D02*
X266000Y380300D01*
X266000Y356300D01*
X242000Y356300D01*
X242000Y380300D01*
G37*
G36*
X242000Y354900D02*
X266000Y354900D01*
X266000Y330900D01*
X242000Y330900D01*
X242000Y354900D01*
G37*
G36*
X242000Y329500D02*
X266000Y329500D01*
X266000Y305500D01*
X242000Y305500D01*
X242000Y329500D01*
G37*
G36*
X216600Y342200D02*
X240600Y342200D01*
X240600Y318200D01*
X216600Y318200D01*
X216600Y342200D01*
G37*
G36*
X216600Y316800D02*
X240600Y316800D01*
X240600Y292800D01*
X216600Y292800D01*
X216600Y316800D01*
G37*
G36*
X242000Y304100D02*
X266000Y304100D01*
X266000Y280100D01*
X242000Y280100D01*
X242000Y304100D01*
G37*
G36*
X242000Y278700D02*
X266000Y278700D01*
X266000Y254700D01*
X242000Y254700D01*
X242000Y278700D01*
G37*
G36*
X242000Y253300D02*
X266000Y253300D01*
X266000Y229300D01*
X242000Y229300D01*
X242000Y253300D01*
G37*
G36*
X242000Y227900D02*
X266000Y227900D01*
X266000Y203900D01*
X242000Y203900D01*
X242000Y227900D01*
G37*
G36*
X242000Y202500D02*
X266000Y202500D01*
X266000Y178500D01*
X242000Y178500D01*
X242000Y202500D01*
G37*
G36*
X242000Y177100D02*
X266000Y177100D01*
X266000Y153100D01*
X242000Y153100D01*
X242000Y177100D01*
G37*
G36*
X242000Y151700D02*
X266000Y151700D01*
X266000Y127700D01*
X242000Y127700D01*
X242000Y151700D01*
G37*
G36*
X216600Y151700D02*
X240600Y151700D01*
X240600Y127700D01*
X216600Y127700D01*
X216600Y151700D01*
G37*
G36*
X191200Y151700D02*
X215200Y151700D01*
X215200Y127700D01*
X191200Y127700D01*
X191200Y151700D01*
G37*
G36*
X165800Y151700D02*
X189800Y151700D01*
X189800Y127700D01*
X165800Y127700D01*
X165800Y151700D01*
G37*
G36*
X140400Y151700D02*
X164400Y151700D01*
X164400Y127700D01*
X140400Y127700D01*
X140400Y151700D01*
G37*
G36*
X115000Y151700D02*
X139000Y151700D01*
X139000Y127700D01*
X115000Y127700D01*
X115000Y151700D01*
G37*
G36*
X89600Y151700D02*
X113600Y151700D01*
X113600Y127700D01*
X89600Y127700D01*
X89600Y151700D01*
G37*
G36*
X89600Y177100D02*
X113600Y177100D01*
X113600Y153100D01*
X89600Y153100D01*
X89600Y177100D01*
G37*
G36*
X89600Y202500D02*
X113600Y202500D01*
X113600Y178500D01*
X89600Y178500D01*
X89600Y202500D01*
G37*
G36*
X89600Y227900D02*
X113600Y227900D01*
X113600Y203900D01*
X89600Y203900D01*
X89600Y227900D01*
G37*
G36*
X89600Y253300D02*
X113600Y253300D01*
X113600Y229300D01*
X89600Y229300D01*
X89600Y253300D01*
G37*
G36*
X89600Y278700D02*
X113600Y278700D01*
X113600Y254700D01*
X89600Y254700D01*
X89600Y278700D01*
G37*
G36*
X89600Y304100D02*
X113600Y304100D01*
X113600Y280100D01*
X89600Y280100D01*
X89600Y304100D01*
G37*
G36*
X89600Y329500D02*
X113600Y329500D01*
X113600Y305500D01*
X89600Y305500D01*
X89600Y329500D01*
G37*
G36*
X89600Y354900D02*
X113600Y354900D01*
X113600Y330900D01*
X89600Y330900D01*
X89600Y354900D01*
G37*
G36*
X89600Y380300D02*
X113600Y380300D01*
X113600Y356300D01*
X89600Y356300D01*
X89600Y380300D01*
G37*
G36*
X89600Y405700D02*
X113600Y405700D01*
X113600Y381700D01*
X89600Y381700D01*
X89600Y405700D01*
G37*
G36*
X89600Y431100D02*
X113600Y431100D01*
X113600Y407100D01*
X89600Y407100D01*
X89600Y431100D01*
G37*
G36*
X102300Y456500D02*
X126300Y456500D01*
X126300Y432500D01*
X102300Y432500D01*
X102300Y456500D01*
G37*
G36*
X127700Y456500D02*
X151700Y456500D01*
X151700Y432500D01*
X127700Y432500D01*
X127700Y456500D01*
G37*
G36*
X153100Y456500D02*
X177100Y456500D01*
X177100Y432500D01*
X153100Y432500D01*
X153100Y456500D01*
G37*
G36*
X178500Y456500D02*
X202500Y456500D01*
X202500Y432500D01*
X178500Y432500D01*
X178500Y456500D01*
G37*
G36*
X203900Y456500D02*
X227900Y456500D01*
X227900Y432500D01*
X203900Y432500D01*
X203900Y456500D01*
G37*
G36*
X229300Y456500D02*
X253300Y456500D01*
X253300Y432500D01*
X229300Y432500D01*
X229300Y456500D01*
G37*
G36*
X26100Y100900D02*
X50100Y100900D01*
X50100Y76900D01*
X26100Y76900D01*
X26100Y100900D01*
G37*
X571500Y127000D02*
G54D11*
D03*
X546100Y127000D02*
G54D11*
D03*
X546100Y152400D02*
G54D11*
D03*
X546100Y177800D02*
G54D11*
D03*
X520700Y127000D02*
G54D11*
D03*
X520700Y152400D02*
G54D11*
D03*
X520700Y177800D02*
G54D11*
D03*
G36*
X367000Y102900D02*
X395000Y102900D01*
X395000Y74900D01*
X367000Y74900D01*
X367000Y102900D01*
G37*
X406400Y88900D02*
G54D13*
D03*
M02*
