%FSLAX34Y34*%
%MOMM*%
%LNSILK_TOP*%
G71*
G01*
%ADD10C, 0.00*%
%ADD11C, 0.30*%
%ADD12C, 1.80*%
%ADD13C, 0.50*%
%ADD14C, 2.00*%
%ADD15R, 0.50X0.90*%
%ADD16R, 0.80X0.90*%
%ADD17C, 0.60*%
%ADD18C, 1.90*%
%ADD19C, 0.11*%
%ADD20C, 0.22*%
%ADD21C, 2.20*%
%ADD22C, 1.90*%
%LPD*%
G54D10*
X0Y500000D02*
X600000Y500000D01*
X600000Y0D01*
X0Y0D01*
X0Y500000D01*
G36*
X94100Y426600D02*
X109100Y426600D01*
X109100Y411600D01*
X94100Y411600D01*
X94100Y426600D01*
G37*
G36*
X94100Y401200D02*
X109100Y401200D01*
X109100Y386200D01*
X94100Y386200D01*
X94100Y401200D01*
G37*
G36*
X94100Y375800D02*
X109100Y375800D01*
X109100Y360800D01*
X94100Y360800D01*
X94100Y375800D01*
G37*
G36*
X94100Y350400D02*
X109100Y350400D01*
X109100Y335400D01*
X94100Y335400D01*
X94100Y350400D01*
G37*
G36*
X94100Y325000D02*
X109100Y325000D01*
X109100Y310000D01*
X94100Y310000D01*
X94100Y325000D01*
G37*
G36*
X94100Y299600D02*
X109100Y299600D01*
X109100Y284600D01*
X94100Y284600D01*
X94100Y299600D01*
G37*
G36*
X94100Y274200D02*
X109100Y274200D01*
X109100Y259200D01*
X94100Y259200D01*
X94100Y274200D01*
G37*
G36*
X94100Y248800D02*
X109100Y248800D01*
X109100Y233800D01*
X94100Y233800D01*
X94100Y248800D01*
G37*
G36*
X94100Y223400D02*
X109100Y223400D01*
X109100Y208400D01*
X94100Y208400D01*
X94100Y223400D01*
G37*
G36*
X94100Y198000D02*
X109100Y198000D01*
X109100Y183000D01*
X94100Y183000D01*
X94100Y198000D01*
G37*
G36*
X94100Y172600D02*
X109100Y172600D01*
X109100Y157600D01*
X94100Y157600D01*
X94100Y172600D01*
G37*
G36*
X94100Y147200D02*
X109100Y147200D01*
X109100Y132200D01*
X94100Y132200D01*
X94100Y147200D01*
G37*
G36*
X119500Y147200D02*
X134500Y147200D01*
X134500Y132200D01*
X119500Y132200D01*
X119500Y147200D01*
G37*
G36*
X106800Y452000D02*
X121800Y452000D01*
X121800Y437000D01*
X106800Y437000D01*
X106800Y452000D01*
G37*
G36*
X132200Y452000D02*
X147200Y452000D01*
X147200Y437000D01*
X132200Y437000D01*
X132200Y452000D01*
G37*
G36*
X157600Y452000D02*
X172600Y452000D01*
X172600Y437000D01*
X157600Y437000D01*
X157600Y452000D01*
G37*
G36*
X183000Y452000D02*
X198000Y452000D01*
X198000Y437000D01*
X183000Y437000D01*
X183000Y452000D01*
G37*
G36*
X208400Y452000D02*
X223400Y452000D01*
X223400Y437000D01*
X208400Y437000D01*
X208400Y452000D01*
G37*
G36*
X233800Y452000D02*
X248800Y452000D01*
X248800Y437000D01*
X233800Y437000D01*
X233800Y452000D01*
G37*
G36*
X246500Y426600D02*
X261500Y426600D01*
X261500Y411600D01*
X246500Y411600D01*
X246500Y426600D01*
G37*
G36*
X246500Y401200D02*
X261500Y401200D01*
X261500Y386200D01*
X246500Y386200D01*
X246500Y401200D01*
G37*
G36*
X246500Y375800D02*
X261500Y375800D01*
X261500Y360800D01*
X246500Y360800D01*
X246500Y375800D01*
G37*
G36*
X246500Y350400D02*
X261500Y350400D01*
X261500Y335400D01*
X246500Y335400D01*
X246500Y350400D01*
G37*
G36*
X246500Y325000D02*
X261500Y325000D01*
X261500Y310000D01*
X246500Y310000D01*
X246500Y325000D01*
G37*
G36*
X246500Y299600D02*
X261500Y299600D01*
X261500Y284600D01*
X246500Y284600D01*
X246500Y299600D01*
G37*
G36*
X246500Y274200D02*
X261500Y274200D01*
X261500Y259200D01*
X246500Y259200D01*
X246500Y274200D01*
G37*
G36*
X246500Y248800D02*
X261500Y248800D01*
X261500Y233800D01*
X246500Y233800D01*
X246500Y248800D01*
G37*
G36*
X246500Y223400D02*
X261500Y223400D01*
X261500Y208400D01*
X246500Y208400D01*
X246500Y223400D01*
G37*
G36*
X246500Y198000D02*
X261500Y198000D01*
X261500Y183000D01*
X246500Y183000D01*
X246500Y198000D01*
G37*
G36*
X246500Y172600D02*
X261500Y172600D01*
X261500Y157600D01*
X246500Y157600D01*
X246500Y172600D01*
G37*
G36*
X246500Y147200D02*
X261500Y147200D01*
X261500Y132200D01*
X246500Y132200D01*
X246500Y147200D01*
G37*
G36*
X221100Y147200D02*
X236100Y147200D01*
X236100Y132200D01*
X221100Y132200D01*
X221100Y147200D01*
G37*
G36*
X195700Y147200D02*
X210700Y147200D01*
X210700Y132200D01*
X195700Y132200D01*
X195700Y147200D01*
G37*
G36*
X170300Y147200D02*
X185300Y147200D01*
X185300Y132200D01*
X170300Y132200D01*
X170300Y147200D01*
G37*
G36*
X144900Y147200D02*
X159900Y147200D01*
X159900Y132200D01*
X144900Y132200D01*
X144900Y147200D01*
G37*
G36*
X221100Y337700D02*
X236100Y337700D01*
X236100Y322700D01*
X221100Y322700D01*
X221100Y337700D01*
G37*
G36*
X221100Y312300D02*
X236100Y312300D01*
X236100Y297300D01*
X221100Y297300D01*
X221100Y312300D01*
G37*
G54D11*
X254000Y342900D02*
X215900Y342900D01*
X177800Y381000D01*
X50800Y381000D01*
G54D11*
X228600Y304800D02*
X482600Y304800D01*
X482600Y482600D01*
G54D11*
X101600Y342900D02*
X88900Y342900D01*
X76200Y330200D01*
X50800Y330200D01*
G54D11*
X228600Y330200D02*
X152400Y330200D01*
X139700Y317500D01*
X139700Y304800D01*
X50800Y304800D01*
X50800Y381000D02*
G54D12*
D03*
X50800Y355600D02*
G54D12*
D03*
X50800Y330200D02*
G54D12*
D03*
X50800Y304800D02*
G54D12*
D03*
G54D11*
X228600Y330200D02*
X431800Y330200D01*
G54D13*
X254000Y393700D02*
X304800Y393700D01*
X317500Y381000D01*
X431800Y381000D01*
G54D11*
X254000Y342900D02*
X279400Y342900D01*
X292100Y355600D01*
X431800Y355600D01*
X431800Y304800D02*
G54D12*
D03*
X431800Y330200D02*
G54D12*
D03*
X431800Y355600D02*
G54D12*
D03*
X431800Y381000D02*
G54D12*
D03*
X393700Y381000D02*
G54D12*
D03*
X393700Y355600D02*
G54D12*
D03*
X393700Y330200D02*
G54D12*
D03*
X393700Y304800D02*
G54D12*
D03*
X355600Y304800D02*
G54D12*
D03*
X355600Y330200D02*
G54D12*
D03*
X355600Y355600D02*
G54D12*
D03*
X355600Y381000D02*
G54D12*
D03*
X317500Y381000D02*
G54D12*
D03*
X317500Y355600D02*
G54D12*
D03*
X317500Y330200D02*
G54D12*
D03*
X317500Y304800D02*
G54D12*
D03*
G54D11*
X114300Y444500D02*
X114300Y457200D01*
G54D11*
X139700Y444500D02*
X139700Y457200D01*
G54D11*
X165100Y444500D02*
X165100Y457200D01*
G54D11*
X190500Y444500D02*
X190500Y457200D01*
G54D11*
X215900Y444500D02*
X215900Y457200D01*
G54D11*
X241300Y444500D02*
X241300Y457200D01*
X114300Y469900D02*
G54D12*
D03*
X139700Y469900D02*
G54D12*
D03*
X165100Y469900D02*
G54D12*
D03*
X190500Y469900D02*
G54D12*
D03*
X215900Y469900D02*
G54D12*
D03*
X241300Y469900D02*
G54D12*
D03*
G54D11*
X114300Y444500D02*
X114300Y469900D01*
G54D11*
X139700Y444500D02*
X139700Y469900D01*
G54D11*
X165100Y444500D02*
X165100Y469900D01*
G54D11*
X190500Y444500D02*
X190500Y469900D01*
G54D11*
X215900Y444500D02*
X215900Y469900D01*
G54D11*
X241300Y444500D02*
X241300Y469900D01*
G54D11*
X101600Y368300D02*
X88900Y368300D01*
X63500Y342900D01*
X12700Y342900D01*
X12700Y190500D01*
X101600Y190500D01*
G54D13*
X279400Y393700D02*
X304800Y393700D01*
X342900Y431800D01*
X368300Y431800D01*
G54D13*
X190500Y444500D02*
X190500Y431800D01*
X279400Y431800D01*
X304800Y457200D01*
X368300Y457200D01*
G54D13*
X368300Y457200D02*
X406400Y457200D01*
G54D13*
X355600Y431800D02*
X406400Y431800D01*
X406400Y457200D02*
G54D14*
D03*
X406400Y431800D02*
G54D14*
D03*
G54D13*
X406400Y457200D02*
X444500Y457200D01*
X444500Y419100D01*
X469900Y419100D01*
X469900Y317500D01*
G54D13*
X469900Y292100D02*
X469900Y241300D01*
G54D13*
X406400Y431800D02*
X431800Y431800D01*
X431800Y406400D01*
X457200Y406400D01*
X457200Y317500D01*
G54D13*
X457200Y292100D02*
X457200Y241300D01*
X457200Y317500D02*
G54D15*
D03*
X469900Y317500D02*
G54D16*
D03*
X457200Y317500D02*
G54D16*
D03*
X457200Y292100D02*
G54D16*
D03*
X469900Y292100D02*
G54D16*
D03*
G54D11*
X431800Y381000D02*
X457200Y381000D01*
G54D17*
X457200Y241300D02*
X457200Y203200D01*
X406400Y203200D01*
X406400Y165100D01*
G54D17*
X469900Y241300D02*
X469900Y165100D01*
X431800Y165100D01*
G54D17*
X381000Y165100D02*
X381000Y88900D01*
G54D17*
X406400Y165100D02*
X406400Y88900D01*
X381000Y165100D02*
G54D18*
D03*
X406400Y165100D02*
G54D18*
D03*
X431800Y165100D02*
G54D18*
D03*
G54D17*
X457200Y241300D02*
X444500Y241300D01*
G54D17*
X457200Y292100D02*
X457200Y241300D01*
G54D17*
X469900Y292100D02*
X469900Y241300D01*
G54D17*
X469900Y241300D02*
X482600Y241300D01*
X444500Y241300D02*
G54D12*
D03*
X482600Y241300D02*
G54D12*
D03*
G54D19*
X437133Y268367D02*
X436467Y267256D01*
X435133Y266700D01*
X433800Y266700D01*
X432467Y267256D01*
X431800Y268367D01*
X431800Y273922D01*
X432467Y275033D01*
X433800Y275589D01*
X435133Y275589D01*
X436467Y275033D01*
X437133Y273922D01*
G54D19*
X439577Y272256D02*
X442910Y275589D01*
X442910Y266700D01*
G54D20*
X481710Y219789D02*
X488822Y219789D01*
G54D20*
X485266Y224234D02*
X485266Y215345D01*
G54D20*
X431800Y223678D02*
X442467Y223678D01*
G36*
X49100Y99900D02*
X49100Y77900D01*
X27100Y77900D01*
X27100Y99900D01*
X49100Y99900D01*
G37*
X38100Y63500D02*
G54D21*
D03*
X190500Y55900D02*
G54D18*
D03*
X165100Y55900D02*
G54D18*
D03*
X139700Y55900D02*
G54D18*
D03*
X190500Y88900D02*
G54D22*
D03*
X292100Y88900D02*
G54D22*
D03*
G54D11*
X254000Y317500D02*
X215900Y317500D01*
X215900Y228600D01*
X330200Y228600D01*
X330200Y25400D01*
X558800Y25400D01*
X571500Y38100D01*
X571500Y114300D01*
X406400Y457200D02*
G54D12*
D03*
X406400Y431800D02*
G54D12*
D03*
X571500Y177800D02*
G54D12*
D03*
X571500Y152400D02*
G54D12*
D03*
X38100Y88900D02*
G54D12*
D03*
X38100Y63500D02*
G54D12*
D03*
X139700Y55900D02*
G54D12*
D03*
X165100Y55900D02*
G54D12*
D03*
X190500Y55900D02*
G54D12*
D03*
G54D11*
X190500Y55900D02*
X190500Y88900D01*
G54D11*
X292100Y88900D02*
X292100Y152400D01*
X114300Y152400D01*
X101600Y165100D01*
X431800Y381000D02*
G54D12*
D03*
X431800Y381000D02*
G54D12*
D03*
X431800Y355600D02*
G54D12*
D03*
X431800Y330200D02*
G54D12*
D03*
X431800Y304800D02*
G54D12*
D03*
X444500Y241300D02*
G54D12*
D03*
X482600Y241300D02*
G54D12*
D03*
X393700Y304800D02*
G54D12*
D03*
X393700Y330200D02*
G54D12*
D03*
X393700Y355600D02*
G54D12*
D03*
X393700Y381000D02*
G54D12*
D03*
X355600Y381000D02*
G54D12*
D03*
X355600Y355600D02*
G54D12*
D03*
X355600Y330200D02*
G54D12*
D03*
X355600Y304800D02*
G54D12*
D03*
X317500Y304800D02*
G54D12*
D03*
X317500Y330200D02*
G54D12*
D03*
X317500Y355600D02*
G54D12*
D03*
X317500Y381000D02*
G54D12*
D03*
G36*
X245000Y428100D02*
X263000Y428100D01*
X263000Y410100D01*
X245000Y410100D01*
X245000Y428100D01*
G37*
G36*
X245000Y402700D02*
X263000Y402700D01*
X263000Y384700D01*
X245000Y384700D01*
X245000Y402700D01*
G37*
G36*
X245000Y377300D02*
X263000Y377300D01*
X263000Y359300D01*
X245000Y359300D01*
X245000Y377300D01*
G37*
G36*
X245000Y351900D02*
X263000Y351900D01*
X263000Y333900D01*
X245000Y333900D01*
X245000Y351900D01*
G37*
G36*
X245000Y326500D02*
X263000Y326500D01*
X263000Y308500D01*
X245000Y308500D01*
X245000Y326500D01*
G37*
G36*
X219600Y339200D02*
X237600Y339200D01*
X237600Y321200D01*
X219600Y321200D01*
X219600Y339200D01*
G37*
G36*
X219600Y313800D02*
X237600Y313800D01*
X237600Y295800D01*
X219600Y295800D01*
X219600Y313800D01*
G37*
G36*
X245000Y301100D02*
X263000Y301100D01*
X263000Y283100D01*
X245000Y283100D01*
X245000Y301100D01*
G37*
G36*
X245000Y275700D02*
X263000Y275700D01*
X263000Y257700D01*
X245000Y257700D01*
X245000Y275700D01*
G37*
G36*
X245000Y250300D02*
X263000Y250300D01*
X263000Y232300D01*
X245000Y232300D01*
X245000Y250300D01*
G37*
G36*
X245000Y224900D02*
X263000Y224900D01*
X263000Y206900D01*
X245000Y206900D01*
X245000Y224900D01*
G37*
G36*
X245000Y199500D02*
X263000Y199500D01*
X263000Y181500D01*
X245000Y181500D01*
X245000Y199500D01*
G37*
G36*
X245000Y174100D02*
X263000Y174100D01*
X263000Y156100D01*
X245000Y156100D01*
X245000Y174100D01*
G37*
G36*
X245000Y148700D02*
X263000Y148700D01*
X263000Y130700D01*
X245000Y130700D01*
X245000Y148700D01*
G37*
G36*
X219600Y148700D02*
X237600Y148700D01*
X237600Y130700D01*
X219600Y130700D01*
X219600Y148700D01*
G37*
G36*
X194200Y148700D02*
X212200Y148700D01*
X212200Y130700D01*
X194200Y130700D01*
X194200Y148700D01*
G37*
G36*
X168800Y148700D02*
X186800Y148700D01*
X186800Y130700D01*
X168800Y130700D01*
X168800Y148700D01*
G37*
G36*
X143400Y148700D02*
X161400Y148700D01*
X161400Y130700D01*
X143400Y130700D01*
X143400Y148700D01*
G37*
G36*
X118000Y148700D02*
X136000Y148700D01*
X136000Y130700D01*
X118000Y130700D01*
X118000Y148700D01*
G37*
G36*
X92600Y148700D02*
X110600Y148700D01*
X110600Y130700D01*
X92600Y130700D01*
X92600Y148700D01*
G37*
G36*
X92600Y174100D02*
X110600Y174100D01*
X110600Y156100D01*
X92600Y156100D01*
X92600Y174100D01*
G37*
G36*
X92600Y199500D02*
X110600Y199500D01*
X110600Y181500D01*
X92600Y181500D01*
X92600Y199500D01*
G37*
G36*
X92600Y224900D02*
X110600Y224900D01*
X110600Y206900D01*
X92600Y206900D01*
X92600Y224900D01*
G37*
G36*
X92600Y250300D02*
X110600Y250300D01*
X110600Y232300D01*
X92600Y232300D01*
X92600Y250300D01*
G37*
G36*
X92600Y275700D02*
X110600Y275700D01*
X110600Y257700D01*
X92600Y257700D01*
X92600Y275700D01*
G37*
G36*
X92600Y301100D02*
X110600Y301100D01*
X110600Y283100D01*
X92600Y283100D01*
X92600Y301100D01*
G37*
G36*
X92600Y326500D02*
X110600Y326500D01*
X110600Y308500D01*
X92600Y308500D01*
X92600Y326500D01*
G37*
G36*
X92600Y351900D02*
X110600Y351900D01*
X110600Y333900D01*
X92600Y333900D01*
X92600Y351900D01*
G37*
G36*
X92600Y377300D02*
X110600Y377300D01*
X110600Y359300D01*
X92600Y359300D01*
X92600Y377300D01*
G37*
G36*
X92600Y402700D02*
X110600Y402700D01*
X110600Y384700D01*
X92600Y384700D01*
X92600Y402700D01*
G37*
G36*
X92600Y428100D02*
X110600Y428100D01*
X110600Y410100D01*
X92600Y410100D01*
X92600Y428100D01*
G37*
G36*
X105300Y453500D02*
X123300Y453500D01*
X123300Y435500D01*
X105300Y435500D01*
X105300Y453500D01*
G37*
G36*
X130700Y453500D02*
X148700Y453500D01*
X148700Y435500D01*
X130700Y435500D01*
X130700Y453500D01*
G37*
G36*
X156100Y453500D02*
X174100Y453500D01*
X174100Y435500D01*
X156100Y435500D01*
X156100Y453500D01*
G37*
G36*
X181500Y453500D02*
X199500Y453500D01*
X199500Y435500D01*
X181500Y435500D01*
X181500Y453500D01*
G37*
G36*
X206900Y453500D02*
X224900Y453500D01*
X224900Y435500D01*
X206900Y435500D01*
X206900Y453500D01*
G37*
G36*
X232300Y453500D02*
X250300Y453500D01*
X250300Y435500D01*
X232300Y435500D01*
X232300Y453500D01*
G37*
G36*
X29100Y97900D02*
X47100Y97900D01*
X47100Y79900D01*
X29100Y79900D01*
X29100Y97900D01*
G37*
G54D11*
X571500Y114300D02*
X571500Y127000D01*
X571500Y127000D02*
G54D12*
D03*
G54D11*
X254000Y241300D02*
X342900Y241300D01*
X342900Y38100D01*
X533400Y38100D01*
X546100Y50800D01*
X546100Y127000D01*
X546100Y127000D02*
G54D12*
D03*
X546100Y152400D02*
G54D12*
D03*
X546100Y177800D02*
G54D12*
D03*
X520700Y127000D02*
G54D12*
D03*
X520700Y152400D02*
G54D12*
D03*
X520700Y177800D02*
G54D12*
D03*
G54D11*
X254000Y266700D02*
X342900Y266700D01*
X355600Y254000D01*
X355600Y50800D01*
X508000Y50800D01*
X520700Y63500D01*
X520700Y127000D01*
G36*
X370000Y99900D02*
X392000Y99900D01*
X392000Y77900D01*
X370000Y77900D01*
X370000Y99900D01*
G37*
X406400Y88900D02*
G54D21*
D03*
G54D11*
X520700Y177800D02*
X546100Y177800D01*
X571500Y177800D01*
G54D11*
X50800Y355600D02*
X38100Y355600D01*
X25400Y368300D01*
X25400Y482600D01*
X482600Y482600D01*
M02*
