; Drill file
; Format: 3.2 (000.00)
M48
METRIC
T01C0.72
T02C1.0
T03C1.14
%
G05
G90
T01
X19.05Y8.89
X29.21Y8.89
T02
X3.81Y6.35
X3.81Y8.89
X10.16Y13.97
X12.70Y13.97
X15.24Y13.97
X17.78Y13.97
X20.32Y13.97
X22.86Y13.97
X25.40Y13.97
X25.40Y16.51
X25.40Y19.05
X25.40Y21.59
X25.40Y24.13
X25.40Y26.67
X25.40Y29.21
X25.40Y31.75
X25.40Y34.29
X25.40Y36.83
X25.40Y39.37
X25.40Y41.91
X24.13Y44.45
X24.13Y46.99
X21.59Y46.99
X19.05Y46.99
X16.51Y46.99
X13.97Y46.99
X11.43Y46.99
X11.43Y44.45
X13.97Y44.45
X16.51Y44.45
X19.05Y44.45
X21.59Y44.45
X22.86Y33.02
X22.86Y30.48
X31.75Y30.48
X31.75Y33.02
X31.75Y35.56
X31.75Y38.10
X35.56Y38.10
X35.56Y35.56
X35.56Y33.02
X35.56Y30.48
X39.37Y30.48
X39.37Y33.02
X39.37Y35.56
X39.37Y38.10
X43.18Y38.10
X43.18Y35.56
X43.18Y33.02
X43.18Y30.48
X44.45Y24.13
X48.26Y24.13
X52.07Y17.78
X54.61Y17.78
X57.15Y17.78
X57.15Y15.24
X57.15Y12.70
X54.61Y12.70
X54.61Y15.24
X52.07Y15.24
X52.07Y12.70
X40.64Y8.89
X38.10Y8.89
X10.16Y16.51
X10.16Y19.05
X10.16Y21.59
X10.16Y24.13
X10.16Y26.67
X10.16Y29.21
X10.16Y31.75
X10.16Y34.29
X10.16Y36.83
X10.16Y39.37
X10.16Y41.91
X5.08Y38.10
X5.08Y35.56
X5.08Y33.02
X5.08Y30.48
X40.64Y43.18
X40.64Y45.72
T03
X13.97Y5.59
X16.51Y5.59
X19.05Y5.59
X38.10Y16.51
X40.64Y16.51
X43.18Y16.51
M30
